<svg width="200" height="75" viewBox="0 0 200 75" fill="none" xmlns="http://www.w3.org/2000/svg" role="img" aria-label="XEL">
  <path d="M97.3044 0C118.73 0 129.295 15.4744 129.295 36.1565V38.0909C129.295 44.0426 127.956 45.5305 122.153 45.5305H84.3594C85.9961 54.0116 90.6087 58.4754 99.685 58.4754C106.529 58.4754 110.993 56.3923 114.564 54.1604C119.474 51.3334 120.814 51.3334 123.343 54.0116L126.616 57.4339C127.956 58.9218 128.551 60.1121 128.551 61.3025C128.551 62.6416 127.807 63.9807 126.021 65.4687C120.665 70.0812 113.225 74.2474 99.8338 74.2474C79.3005 74.2474 65.4628 61.8976 65.4628 37.1981C65.4628 15.772 77.0686 0 97.3044 0ZM97.3044 15.772C90.0135 15.772 85.401 20.6821 84.0618 30.0561H111.291C109.803 20.8309 104.893 15.772 97.3044 15.772Z" fill="currentColor"/>
  <path d="M1.84703 66.5102L20.7437 37.3469L1.54944 7.73721C-1.27761 3.42223 -0.236065 1.63673 4.67408 1.63673H8.98906C15.0896 1.63673 17.4702 2.82706 21.0412 7.73721L30.564 22.4677L40.0867 7.73721C43.5089 2.82706 45.8896 1.63673 51.9901 1.63673H56.4538C61.2152 1.63673 62.5543 3.57102 59.7273 7.73721L40.3843 37.4957L59.4297 66.659C62.1079 70.8252 61.0664 72.7595 56.4538 72.7595H51.8413C45.7408 72.7595 43.2113 71.5691 39.7891 66.5102L30.7127 52.5237L21.4876 66.659C18.2142 71.7179 15.5359 72.7595 9.43544 72.7595H5.12046C0.210312 72.7595 -0.980027 70.5276 1.84703 66.5102Z" fill="currentColor"/>
  <path d="M143.161 65.3199L143.161 5.80292C143.161 2.03588 144.649 1.09412 150.601 1.09412H154.767C160.868 1.09412 162.207 2.03588 162.207 5.80292V54.458H192.709C198.512 54.458 200 55.9459 200 61.8976V65.3199C200 71.2716 198.512 72.7595 192.709 72.7595H150.601C144.649 72.7595 143.161 71.2716 143.161 65.3199Z" fill="currentColor"/>
</svg>
